<?xml version="1.0" encoding="UTF-8"?>
<svg xmlns="http://www.w3.org/2000/svg" viewBox="0 0 232.1 185.31">
  <defs>
    <style>
      .cls-1 {
        fill: #772f20;
      }

      .cls-1, .cls-2, .cls-3, .cls-4, .cls-5, .cls-6, .cls-7, .cls-8, .cls-9, .cls-10, .cls-11, .cls-12, .cls-13, .cls-14, .cls-15, .cls-16, .cls-17, .cls-18, .cls-19, .cls-20, .cls-21, .cls-22, .cls-23, .cls-24, .cls-25 {
        stroke-width: 0px;
      }

      .cls-2 {
        fill: #ddd2d0;
      }

      .cls-3 {
        fill: #baa493;
        mix-blend-mode: multiply;
        opacity: .5;
      }

      .cls-4 {
        fill: #c97923;
      }

      .cls-5 {
        fill: #af3838;
      }

      .cls-6 {
        fill: #b7a4a1;
      }

      .cls-7 {
        fill: #bc4444;
      }

      .cls-8 {
        fill: #ede0d6;
      }

      .cls-9 {
        fill: #b59b85;
      }

      .cls-26 {
        isolation: isolate;
      }

      .cls-10 {
        fill: #aa513c;
      }

      .cls-11 {
        fill: #cc7b2b;
      }

      .cls-12 {
        fill: #ad633a;
      }

      .cls-13 {
        fill: #c4b1ae;
      }

      .cls-14 {
        fill: #d88e2e;
      }

      .cls-15 {
        fill: #b25640;
      }

      .cls-16 {
        fill: #3a2725;
      }

      .cls-17 {
        fill: #9b482f;
      }

      .cls-18 {
        fill: #e54177;
      }

      .cls-19 {
        fill: #49312f;
      }

      .cls-20 {
        fill: #ea9942;
      }

      .cls-21 {
        fill: #c6b3a1;
      }

      .cls-22 {
        fill: #54271e;
      }

      .cls-23 {
        fill: #5b403e;
      }

      .cls-24 {
        fill: #843826;
      }

      .cls-25 {
        fill: #ffac5a;
      }
    </style>
  </defs>
  <g class="cls-26">
    <g id="Layer_1" data-name="Layer 1">
      <g>
        <path class="cls-3" d="M194.22,182c-9.15,4.01-23.55-2.17-29.18-12.17-5.63-10-14.72-14.64-21.63-21.14-6.91-6.5.88-13.78,20.14-5.07,19.26,8.7,52.28,28.91,30.67,38.39Z"/>
        <path class="cls-3" d="M158.12,173.87c6.88-5.23-3.73-13.46-20.88-16.68-17.15-3.22-25.12-8.41-36.26-12.37-11.15-3.95-23.62.5-8.7,11.52,14.92,11.01,49.58,29.89,65.84,17.53Z"/>
        <path class="cls-3" d="M94.99,147.01c-1.3-4.27-8.18-3.49-15.87-.78-7.69,2.71-17.56,6.51-17.56,6.51l.02.03c-1.19.42-2.2.73-3.17.92.34-.63.93-1.31,1.76-2.13.04-.03,6.59-5.34,11.26-9.77,4.69-4.44,6.04-8.41-1.35-9.16-7.4-.75-12.36,3.19-16.75,8-3.85,4.21-.51,6.62,1.86,7.51,1.8.67,3.44.76,3.44.76l-.97.99c-.3.3-.6.61-.91.93l-.05.05h0c-.92.96-1.81,1.98-2.39,2.82-.34-.07-.69-.14-1.06-.24-1.38-.37-3.01-.71-9.46,1.16-7.48,2.17-18.75,6.22-28.39,10.8-15.42,7.32-8.36,9.98-8.36,9.98,0,0,32.3-16.16,39.82-18.56,4.35-1.38,6.09-1.1,7.55-.77.57.84,1.07,1.85-1.33,4.36-2.11,2.21-10.19,8.23-17.59,13.59-.31.23-.62.45-.93.68-6.75,4.88-12.7,9.05-12.7,9.05,0,0,4.83,3.94,17.52-4.96,7.93-5.57,15.04-12.2,18.8-16.52,3.25-3.72,1.42-4.73.77-5.53-.17-.21-.31-.42-.43-.62,1.34-.32,2.85-.85,4.27-1.42h0s4.23-1.47,4.23-1.47c0,0-.03,1.35,1.13,2.39,1.53,1.37,5.71,3.29,13,1.07,8.33-2.53,15.16-5.4,13.86-9.67ZM56.72,141.41c2.07-2.36,5.17-6.28,8.83-6.84,3.66-.57,6.91.47,6.14,2.5-.52,1.39-3.15,3.98-6.16,6.8-2.6,2.43-3.59,3.13-6.91,2.46-3.32-.67-3.98-2.56-1.9-4.91ZM91.63,149.62c-.98,2.12-7.78,3.9-11.85,5.1-4.08,1.2-7.35.82-8.51-1.1-1.16-1.92.06-2.49,4.27-3.99,4.88-1.74,9.37-3.25,11.77-3.56,3.52-.44,5.31,1.43,4.33,3.55Z"/>
        <path class="cls-3" d="M134.86,126.05c.02,2.24-3.19,4.1-7.18,4.13-3.99.04-7.24-1.75-7.26-3.99-.02-2.24,3.19-4.1,7.18-4.13,3.99-.04,7.24,1.75,7.26,3.99Z"/>
        <path class="cls-3" d="M117.5,116.7c.02,2.24-3.19,4.1-7.18,4.13-3.99.04-7.24-1.75-7.26-3.99-.02-2.24,3.19-4.1,7.18-4.13,3.99-.04,7.24,1.75,7.26,3.99Z"/>
        <path class="cls-3" d="M139.66,83.25c.05,5.5-7.82,10.03-17.58,10.12-9.76.09-17.72-4.28-17.78-9.78-.05-5.5,7.82-10.03,17.58-10.12,9.76-.09,17.72,4.28,17.78,9.78Z"/>
        <path class="cls-3" d="M186.32,138.39c-3.68-2.71-7.77-7.15-13.12-10.07-1.79-.97-3.45-1.57-5.05-1.96-.56-.26-.92-.41-.97-.36l-.2.12c-4.73-.84-9.09.04-14.83-.93-4.05-.69-7.02-2.65-9.13-3.76l-1.85,1.23c1.41,1.97,3.53,3.99,6.7,4.81,4.07,1.06,7.95,1.73,11.95,2.83l-64.11,37.35c-.6.35-.6,1.21-.01,1.57l6,3.62c.91.55,2.05.56,2.98.03l64.66-37.1c3.07,1.9,7.24,4.7,11.24,6.92,4.3,2.39,7.61,3.3,7.61,3.3l5.15-3.87s-3.28-1-7.01-3.75Z"/>
        <path class="cls-3" d="M37.34,96.49c-7.34-4.02,5.53-13.6,16.16-15.7,16.58-3.27,15.31-8.58,26.11-12.41,10.8-3.83,17.51,3.84,3.05,14.51-14.45,10.67-30.83,21.53-45.32,13.6Z"/>
        <path class="cls-3" d="M4.8,95.23c9.09,3.02,22.08,1.27,29.51-5.85,6.69-6.4,14.29-12.26,19.86-17.29,6.75-6.1-.84-13.21-19.32-4.87-18.48,8.35-46.03,22.69-30.04,28.01Z"/>
        <path class="cls-3" d="M217.58,127.05c-15.58,9.25-37.98-4.37-46.03-10.77-6.52-5.18-18.54-12.54-24.1-17.58-6.75-6.1,1.95-16.71,20.43-8.36,18.48,8.35,67.84,25.94,49.71,36.71Z"/>
        <path class="cls-3" d="M228.37,105.72c-14.79,8.79-36.06-4.15-43.71-10.23-6.19-4.92-17.6-11.91-22.89-16.69-6.41-5.79,1.85-15.86,19.39-7.94,17.54,7.92,64.41,24.63,47.2,34.85Z"/>
        <path class="cls-24" d="M156.98,172.84c6.67-5.07-3.61-13.04-20.22-16.16-16.61-3.12-24.33-8.15-35.12-11.98-10.8-3.83-22.88.49-8.43,11.15,14.45,10.67,48.03,28.95,63.77,16.98Z"/>
        <g>
          <path class="cls-24" d="M156.4,167.94l2.63-.24s.01,1.63,0,1.76c-.01.13-1.95.8-1.95.8l-.68-2.32Z"/>
          <polygon class="cls-24" points="86.58 147.68 86.58 145.6 88.44 145.6 88.24 147.7 86.58 147.68"/>
          <path class="cls-10" d="M156.98,171.26c6.67-5.07-3.61-13.04-20.22-16.16-16.61-3.12-24.33-8.15-35.12-11.98-10.8-3.83-22.88.49-8.43,11.15,14.45,10.67,48.03,28.95,63.77,16.98Z"/>
        </g>
        <g>
          <path class="cls-24" d="M164.29,143.57c-18.48-8.35-25.95-1.37-19.32,4.87,6.63,6.23,15.35,10.69,20.75,20.28,5.4,9.59,19.21,15.52,27.99,11.68,20.73-9.09-10.94-28.47-29.41-36.82Z"/>
          <polygon class="cls-24" points="198.27 170.26 198.7 173.64 198.94 173.64 200.47 173.26 200.49 170.89 198.27 170.26"/>
          <path class="cls-10" d="M164.29,141.99c-18.48-8.35-25.95-1.37-19.32,4.87,6.63,6.23,15.35,10.69,20.75,20.28,5.4,9.59,19.21,15.52,27.99,11.68,20.73-9.09-10.94-28.47-29.41-36.82Z"/>
        </g>
        <g>
          <path class="cls-22" d="M162.68,67.11s-2.91-.84-3.95,1.61c-1.15,2.7-.77,4.33.59,6.89,2.59,4.86,11.32,8.34,11.32,8.34l.95-.77s4.31,2.94,5.85,4.64c1.55,1.7,6.79,6.88,15.15,11.52,8.36,4.64,14.91,6.75,22.95,7.37,7.7.59,10.57-.57,12.65-2.5,2.78-2.58,1.75-5.41.82-7.81-1.36-3.54-5.05-3.79-5.05-3.79l-61.29-25.49Z"/>
          <path class="cls-17" d="M229.02,92.44c-.74-1.72-4.61-5.78-9.36-10.39-3.24-3.14-6.88-6.54-10.22-9.62-8.24-7.6-13.53-11.8-21.02-12.92-9.28-1.39-15.16-5.29-22.47-4.78-1.99.14-4.82.82-6.37,6.59-.5,1.87-.7,3.91-.75,5.65-.04,1.12-.61,3.27.48,5.46,1.45,2.9,5.15,6.2,10.13,8.46,1.96.89,3.54,1.86,4.95,2.91,4.92,3.64,6.81,7.66,16.7,13.43,14.61,8.53,27.63,8.18,32.47,7.47,1.88-.28,5.25-1.15,5.43-3.21h.03s1.24-6.17,0-9.06Z"/>
          <path class="cls-20" d="M164.1,55.76c-2.07.71-3.38,2.95-1.52,5.56,1.85,2.6,7.91,6.03,12.45,7.4,4.53,1.37,8.97-.28,12.26-.9,3.3-.62,8.66-1.8,8.66-1.8,0,0,1.02-3.86-4.64-5.1-3.09-.68-9.8-1.62-14.94-3.61-6.39-2.47-10.59-2.12-12.26-1.55Z"/>
          <path class="cls-12" d="M215.01,77.6c-1.12,1.21-2.35,2.28-3.65,3.23-2.01-2.43-11.69-11.59-12.89-14.01-.17-.35-.3-.71-.4-1.1-.24-.91-.19-1.81-.29-2.73,0-.04-.39-.3-.39-.25-.07,1.1.15,3.53.82,4.89-5.95-1.12-12.92,3.6-19.64,3.12-3.9-.28-7.59-1.82-10.8-4.01-1.9-1.3-8.38-5.83-6.87-8.64-.02-.24-.33.01-.5.49-1.33,3.84,9.33,10.34,11.53,11.26,3.83,1.59,8,2.07,12.05,1.17,1.43-.32,2.85-.77,4.26-1.21,4.55,3.2,15.8,13.84,16.52,14.48-4.64,1.61-9.74,1.83-14.66.41-2.28-.66-4.4-1.65-6.43-2.88-1.47-.89-2.97-1.86-4.73-1.97-1.38-.09-2.83.54-3.53,1.6-.21.31-.59,2.27-.65,2.64.14.17.28.41.51.4.07-.34.44-2.44.62-2.72.57-.84,1.61-1.38,2.71-1.36,1.42.03,2.7.76,3.87,1.48,1.48.91,2.93,1.8,4.54,2.49,3.38,1.44,7.09,2.12,10.76,1.99,6.77-.24,13.15-3.31,17.72-8.27,0,0-.29-.32-.48-.48ZM205.3,84.08c-.64-.81-11.58-10.88-16.44-14.47,2.72-.86,5.09-1.79,7.91-1.5,1.42.15,2.49,1.11,3.36,1.92,1.38,1.28,3.25,3.29,4.57,4.6,2.12,2.12,4.14,4.33,6.12,6.58-1.72,1.19-3.58,2.15-5.52,2.87Z"/>
          <path class="cls-24" d="M159.58,61.31s.09,4.46,5.55,8.26c5.46,3.8,5.67,6.07,6.18,7.72.52,1.65,0,4.54,0,4.54,0,0-6.52-2.66-9.65-6.23-3.13-3.57-4.16-4.9-2.08-14.29Z"/>
          <path class="cls-12" d="M221.11,83.48c-1.29,2.24-3.2,2.49-5.64,1.69-.57-.19-1.12-.46-1.66-.71-.48-.22-1.37-.43-.73.46,1.31,1.82.26,4.42-1.59,5.6-1.71,1.1-3.98,1.39-5.97,1.49-3.88.18-7.71-.75-11.35-2.01-3.19-1.1-7.22-3.31-10.5-4.08-2.03-.47-3.24.32-4.31,2.26.21.16.42.36.42.36,1.69-3.35,4.49-1.69,6.83-.75,2.1.85,4.18,1.75,6.31,2.54,4.03,1.48,8.28,2.64,12.62,2.43,2.98-.14,6.79-.79,8.35-3.68.67-1.24.66-2.68.05-3.77,1.36.66,2.9,1.09,4.21.97,1.43-.13,3.05-1.02,3.3-2.5.02-.14,0,0-.31-.29Z"/>
          <path class="cls-24" d="M223.34,101.6c-4.61,1.11-10.98-.73-15.44-1.84-8.64-2.16-17.42-8.24-23.19-11.88-3.12-1.96-4.63-.36-5.15.45,2.92,2.75,5.35,5.3,11.53,8.9,14.61,8.53,26.72,9.03,31.56,8.29,2.86-.44,6.16-1.97,6.34-4.03h.03s.38-1.89.5-4.07c-1.14,1.39-3.94,3.63-6.19,4.17Z"/>
          <path class="cls-11" d="M169.57,62.29c-1.5.32-2.93.95-4.16,1.64,2.69,1.94,6.51,3.84,9.61,4.78,3.61,1.09,7.15.27,10.1-.42-6.85-3.51-11.52-6.86-15.55-6Z"/>
          <path class="cls-22" d="M200.9,65.98c-2.01,2.79-4.78,4-7.86,5.18-.45.17-.34.71.23.62,3.61-.57,6.34-2.67,8.27-5.43.27-.39-.37-.76-.64-.37Z"/>
          <path class="cls-22" d="M203.86,68.75c-2.01,2.79-4.78,4-7.86,5.18-.45.17-.34.71.23.62,3.61-.57,6.34-2.67,8.27-5.43.27-.39-.37-.76-.64-.37Z"/>
          <path class="cls-22" d="M206.85,71.42c-2.01,2.79-4.78,4-7.86,5.18-.45.17-.34.71.23.62,3.61-.57,6.34-2.67,8.27-5.43.27-.39-.37-.76-.64-.37Z"/>
          <path class="cls-22" d="M210.12,74.41c-2.01,2.79-4.78,4-7.86,5.18-.45.17-.34.71.23.62,3.61-.57,6.34-2.67,8.27-5.43.27-.39-.37-.76-.64-.37Z"/>
          <path class="cls-22" d="M213.17,77.28c-2.01,2.79-4.78,4-7.86,5.18-.45.17-.34.71.23.62,3.61-.57,6.34-2.67,8.27-5.43.27-.39-.37-.76-.64-.37Z"/>
          <path class="cls-22" d="M205.33,66.76c-1.58.56-4.98,1.04-5.83,1.14,1.26-.81,2.34-1.92,2.98-3.29.44-.94.85-2.45-.32-3.06-1.05-.55-2.17.15-2.71,1.05-.84,1.41-.96,3.4-.75,5.04-.04.02-.08.05-.11.09-.01,0-.02.01-.03.02,0,0,0,0,0,0-1.92-.26-4.04.47-5.61,1.52-1.03.7-2.39,2.01-1.6,3.37.74,1.29,2.43,1.13,3.53.48,1.43-.84,2.59-2.27,3.48-3.74-.16.67-.34,1.33-.57,1.98-.45,1.28-1.17,2.38-1.72,3.61-.09.21.17.47.35.27,1.57-1.75,2.52-4.61,2.6-6.98,1.45.3,5.67-.25,6.51-1.2.13-.14,0-.38-.18-.32ZM196.52,70.86c-.4.46-.83.92-1.31,1.31-.4.36-.86.63-1.36.81-.67.3-1.3.14-1.83-.48-.66-.78-.55-1.29.24-1.95.28-.3.6-.56.95-.79.51-.35,1.05-.62,1.62-.85,1.15-.47,2.31-.6,3.51-.74-.51.96-1.1,1.86-1.81,2.69ZM199.26,64.53c.13-.57.29-1.18.59-1.69.24-.45.6-.76,1.08-.94.69-.27,1.19.08,1.36.39.21.38.26,1.26-.1,1.73-.98,1.81-2.34,3.2-3.06,3.64,0-1-.08-2.14.14-3.13Z"/>
        </g>
        <g>
          <path class="cls-22" d="M152.17,88.21s-2.91-.84-3.95,1.61c-1.15,2.7-.77,4.33.59,6.89,2.59,4.86,11.32,8.34,11.32,8.34l.95-.77s4.31,2.94,5.85,4.64c1.55,1.7,6.79,6.88,15.15,11.52s14.91,6.75,22.95,7.37c7.7.59,10.57-.57,12.65-2.5,2.78-2.58,1.75-5.41.82-7.81-1.36-3.54-5.05-3.79-5.05-3.79l-61.29-25.49Z"/>
          <path class="cls-17" d="M218.51,113.55c-.74-1.72-4.61-5.78-9.36-10.39-3.24-3.14-6.88-6.54-10.22-9.62-8.24-7.6-13.53-11.8-21.02-12.92-9.28-1.39-15.16-5.29-22.47-4.78-1.99.14-4.82.82-6.37,6.59-.5,1.87-.7,3.91-.75,5.65-.04,1.12-.61,3.27.48,5.46,1.45,2.9,5.15,6.2,10.13,8.46,1.96.89,3.54,1.86,4.95,2.91,4.92,3.64,6.81,7.66,16.7,13.43,14.61,8.53,27.63,8.18,32.47,7.47,1.88-.28,5.25-1.15,5.43-3.21h.03s1.24-6.17,0-9.06Z"/>
          <path class="cls-20" d="M153.58,76.86c-2.07.71-3.38,2.95-1.52,5.56,1.85,2.6,7.91,6.03,12.45,7.4s8.97-.28,12.26-.9c3.3-.62,8.66-1.8,8.66-1.8,0,0,1.02-3.86-4.64-5.1-3.09-.68-9.8-1.62-14.94-3.61-6.39-2.47-10.59-2.12-12.26-1.55Z"/>
          <path class="cls-12" d="M204.49,98.71c-1.12,1.21-2.35,2.28-3.65,3.23-2.01-2.43-11.69-11.59-12.89-14.01-.17-.35-.3-.71-.4-1.1-.24-.91-.19-1.81-.29-2.73,0-.04-.39-.3-.39-.25-.07,1.1.15,3.53.82,4.89-5.95-1.12-12.93,3.6-19.64,3.12-3.9-.28-7.59-1.82-10.8-4.01-1.9-1.3-8.38-5.83-6.87-8.64-.02-.24-.33.01-.5.49-1.33,3.84,9.33,10.34,11.53,11.26,3.83,1.59,8,2.07,12.05,1.17,1.43-.32,2.85-.77,4.26-1.21,4.55,3.2,15.8,13.84,16.52,14.48-4.64,1.61-9.74,1.83-14.66.41-2.28-.66-4.4-1.65-6.43-2.88-1.47-.89-2.97-1.86-4.73-1.97-1.38-.09-2.83.54-3.53,1.6-.21.31-.59,2.27-.65,2.64.14.17.28.41.51.4.07-.34.44-2.44.62-2.72.57-.84,1.61-1.38,2.71-1.36,1.42.03,2.7.76,3.87,1.48,1.48.91,2.93,1.8,4.54,2.49,3.38,1.44,7.09,2.12,10.76,1.99,6.77-.24,13.15-3.31,17.72-8.27,0,0-.29-.32-.48-.48ZM194.78,105.18c-.64-.81-11.58-10.88-16.44-14.47,2.72-.86,5.09-1.79,7.91-1.5,1.42.15,2.49,1.11,3.36,1.92,1.38,1.28,3.25,3.29,4.57,4.6,2.12,2.12,4.14,4.33,6.12,6.58-1.72,1.19-3.58,2.15-5.52,2.87Z"/>
          <path class="cls-24" d="M149.07,82.42s.09,4.46,5.55,8.26c5.46,3.8,5.67,6.07,6.18,7.72.52,1.65,0,4.54,0,4.54,0,0-6.52-2.66-9.65-6.23-3.13-3.57-4.16-4.9-2.08-14.29Z"/>
          <path class="cls-12" d="M210.6,104.58c-1.29,2.24-3.2,2.49-5.64,1.69-.57-.19-1.12-.46-1.66-.71-.48-.22-1.37-.43-.73.46,1.31,1.82.26,4.42-1.59,5.6-1.71,1.1-3.98,1.39-5.97,1.49-3.88.18-7.71-.75-11.35-2.01-3.19-1.1-7.22-3.31-10.5-4.08-2.03-.47-3.24.32-4.31,2.26.21.16.42.36.42.36,1.69-3.35,4.49-1.69,6.83-.75,2.1.85,4.18,1.75,6.31,2.54,4.03,1.48,8.28,2.64,12.62,2.43,2.98-.14,6.79-.79,8.35-3.68.67-1.24.66-2.68.05-3.77,1.36.66,2.9,1.09,4.21.97,1.43-.13,3.05-1.02,3.3-2.5.02-.14,0,0-.31-.29Z"/>
          <path class="cls-24" d="M212.82,122.71c-4.61,1.11-10.98-.73-15.44-1.84-8.64-2.16-17.42-8.24-23.19-11.88-3.12-1.96-4.63-.36-5.15.45,2.92,2.75,5.35,5.3,11.53,8.9,14.61,8.53,26.72,9.03,31.56,8.29,2.86-.44,6.16-1.97,6.34-4.03h.03s.38-1.89.5-4.07c-1.14,1.39-3.94,3.63-6.19,4.17Z"/>
          <path class="cls-11" d="M159.06,83.4c-1.5.32-2.93.95-4.16,1.64,2.69,1.94,6.51,3.84,9.61,4.78,3.61,1.09,7.15.27,10.1-.42-6.85-3.51-11.52-6.86-15.55-6Z"/>
          <path class="cls-22" d="M190.38,87.08c-2.01,2.79-4.78,4-7.86,5.18-.45.17-.34.71.23.62,3.61-.57,6.34-2.67,8.27-5.43.27-.39-.37-.76-.64-.37Z"/>
          <path class="cls-22" d="M193.34,89.85c-2.01,2.79-4.78,4-7.86,5.18-.45.17-.34.71.23.62,3.61-.57,6.34-2.67,8.27-5.43.27-.39-.37-.76-.64-.37Z"/>
          <path class="cls-22" d="M196.33,92.53c-2.01,2.79-4.78,4-7.86,5.18-.45.17-.34.71.23.62,3.61-.57,6.34-2.67,8.27-5.43.27-.39-.37-.76-.64-.37Z"/>
          <path class="cls-22" d="M199.6,95.52c-2.01,2.79-4.78,4-7.86,5.18-.45.17-.34.71.23.62,3.61-.57,6.34-2.67,8.27-5.43.27-.39-.37-.76-.64-.37Z"/>
          <path class="cls-22" d="M202.65,98.39c-2.01,2.79-4.78,4-7.86,5.18-.45.17-.34.71.23.62,3.61-.57,6.34-2.67,8.27-5.43.27-.39-.37-.76-.64-.37Z"/>
          <path class="cls-22" d="M194.81,87.87c-1.58.56-4.98,1.04-5.83,1.14,1.26-.81,2.34-1.92,2.98-3.29.44-.94.85-2.45-.32-3.06-1.05-.55-2.17.15-2.71,1.05-.84,1.41-.96,3.4-.75,5.04-.04.02-.08.05-.11.09-.01,0-.02.01-.03.02,0,0,0,0,0,0-1.92-.27-4.04.47-5.61,1.52-1.03.7-2.39,2.01-1.6,3.37.74,1.29,2.43,1.13,3.53.48,1.43-.84,2.59-2.27,3.48-3.74-.16.67-.34,1.33-.57,1.98-.45,1.28-1.17,2.38-1.72,3.61-.09.21.16.47.35.27,1.57-1.75,2.52-4.61,2.6-6.98,1.45.3,5.67-.25,6.51-1.2.13-.14,0-.38-.18-.32ZM186.01,91.97c-.4.46-.83.92-1.31,1.31-.4.36-.86.63-1.36.81-.67.3-1.3.14-1.83-.48-.66-.78-.55-1.29.24-1.95.28-.3.6-.56.95-.79.51-.35,1.05-.62,1.62-.85,1.15-.47,2.31-.6,3.51-.74-.51.96-1.1,1.86-1.81,2.69ZM188.74,85.64c.13-.57.29-1.18.59-1.69.24-.45.6-.76,1.08-.94.69-.27,1.19.08,1.36.39.21.38.26,1.26-.1,1.73-.98,1.81-2.34,3.2-3.06,3.64,0-1-.08-2.14.14-3.13Z"/>
        </g>
        <g>
          <path class="cls-19" d="M143.06,117.39c1.86.98,6.95,4.41,10.54,5.02,7.2,1.22,11.12,1.15,17.81,4.79,9.54,5.19,17.83,12.23,17.83,12.23l-3.58,2.09s-4.99-1.89-9.96-4.4c-3.06-1.55-5.7-2.84-7.37-3.73-5.38-2.87-7.48-3.99-9.73-5.25-4.22-2.35-6.13-1.87-9.44-2.35-2.87-.42-4.61-.93-6.1-2.61v-5.79Z"/>
          <path class="cls-23" d="M144.7,116.3c1.86.99,4.49,2.72,8.08,3.33,7.2,1.22,11.95-.87,18.64,2.77,4.74,2.58,8.36,6.51,11.62,8.92,3.3,2.43,6.21,3.32,6.21,3.32l-3.05,3.16s-3.64-1.06-7.4-3.25c-3.78-2.2-7.69-5.55-10.58-7.05-6.93-3.59-12.79-4.17-19.21-5.84-2.81-.73-4.69-2.52-5.93-4.26l1.63-1.09Z"/>
          <g>
            <path class="cls-16" d="M182.98,139.99c0-2.68,1.63-5.8,3.64-6.96.91-.52,1.73-.56,2.37-.2h0s2.58,1.65,2.58,1.65l-1.51,3.02c-.34,1.49-1.08,2.97-2.02,4.05l-1.42,2.83-2.49-1.51h0c-.71-.48-1.16-1.48-1.16-2.88Z"/>
            <path class="cls-23" d="M192.55,137.21c0,2.68-1.63,5.8-3.64,6.96-2.01,1.16-3.64-.07-3.64-2.76s1.63-5.8,3.64-6.96c2.01-1.16,3.64.07,3.64,2.76Z"/>
          </g>
          <path class="cls-16" d="M162.22,126.23c.26-.15.62-.16,1.06.1l5.38,3.11c.85.49,1.63,1.69,1.73,2.65.04.41-.05.71-.23.89l-4.2,2.47-7.89-6.76s3.07-1.81,4.15-2.45Z"/>
          <path class="cls-16" d="M159.38,132.35l5.38,3.11c.85.49,1.47.1,1.37-.86h0c-.1-.97-.87-2.16-1.73-2.65l-5.38-3.11c-.85-.49-1.47-.1-1.37.86h0c.1.97.87,2.16,1.73,2.65Z"/>
          <g>
            <path class="cls-20" d="M164.15,132.76c.64.37,1.22,1.27,1.3,1.99.03.31-.04.54-.18.68h0c-.05.05-.11.09-.19.11l-61.91,36.3-3.46-2.78,63.67-36.76.77.46Z"/>
            <path class="cls-25" d="M158.25,129.76c.18-.19.49-.2.86.01l4.26,2.53-63.67,36.76-3.57-2.87,62.12-36.43Z"/>
            <path class="cls-4" d="M97.27,168.84l5.03,2.99c.64.37,1.1.08,1.03-.65h0c-.07-.73-.66-1.62-1.3-1.99l-5.03-2.99c-.64-.37-1.1-.08-1.03.65h0c.07.73.66,1.62,1.3,1.99Z"/>
          </g>
        </g>
        <g>
          <path class="cls-19" d="M137.01,123.72c-1.71-2.01-4.91-2.18-7.08-3.44-.05-.03-.12.05-.07.09,1.75,1.45,4.12,1.6,5.89,2.98,1.68,1.3,2.22,3.61.15,4.85-1.27.76-2.91.92-4.35,1.09-3.41.4-8.16.5-9.92,4.09-.08.17.15.38.28.21,2.31-2.94,5.44-3.36,8.96-3.67,2.03-.18,4.6-.27,6.14-1.81,1.25-1.24,1.11-3.09,0-4.39Z"/>
          <g>
            <path class="cls-20" d="M121.98,124.56l.02,1.37h0c.02,1.74,2.58,3.13,5.68,3.1,3.1-.03,5.63-1.47,5.62-3.21h0l-.02-1.37-11.29.11Z"/>
            <path class="cls-25" d="M133.27,124.45c.02,1.75-2.5,3.2-5.61,3.23s-5.66-1.37-5.68-3.12,2.5-3.2,5.61-3.23,5.66,1.37,5.68,3.12Z"/>
          </g>
          <path class="cls-19" d="M123.69,111.01v13.37h.01c.01,1.21,1.8,2.18,3.96,2.16,2.16-.02,3.93-1.02,3.91-2.24h0v-13.37s-7.88.08-7.88.08Z"/>
          <g>
            <path class="cls-16" d="M130.72,117.59c.3-.31.58-.63.85-.95v-.79c-.33-.03-.65-.06-.96-.1-1.62-.21-3.29-.61-4.78-1.28-.95-.43-1.6-.9-2.13-1.49v2.48c1.52,1.57,4.4,2.12,7.02,2.13Z"/>
            <path class="cls-16" d="M123.7,122.35v2.18c1.8.62,5.95.76,7.87-1.9v-2.36c-1.78,2.19-5.86,3.14-7.87,2.08Z"/>
          </g>
          <g>
            <path class="cls-23" d="M131.57,117.21v-2.21c-.81.72-1.69,1.33-2.33,1.71-1.66.98-3.58,1.74-5.53,2.03v2.04c4.42-.26,6.94-2.53,7.87-3.56Z"/>
            <path class="cls-23" d="M131.56,110.94l-2.05.02c-1.39,1.93-3.48,3.59-5.81,3.97v1.84c3.19-.8,6.42-2.53,7.87-5.42v-.41Z"/>
          </g>
          <g>
            <path class="cls-20" d="M121.98,108.8l.02,1.37h0c.02,1.74,2.58,3.13,5.68,3.1,3.1-.03,5.63-1.47,5.62-3.21h0l-.02-1.37-11.29.11Z"/>
            <path class="cls-25" d="M133.27,108.69c.02,1.75-2.5,3.2-5.61,3.23-3.12.03-5.66-1.37-5.68-3.12s2.5-3.2,5.61-3.23c3.12-.03,5.66,1.37,5.68,3.12Z"/>
          </g>
          <path class="cls-16" d="M131.57,119.42v2.18c-1.8.62-5.95.76-7.87-1.9v-2.36c1.78,2.19,5.86,3.14,7.87,2.08Z"/>
          <path class="cls-23" d="M123.7,122.81s2.27,1.51,4.6,1.64c2.33.13,3.28-.15,3.28-.15v-.49s-.98.43-3.63-.17c-2.65-.6-4.24-1.68-4.24-1.68v.84Z"/>
        </g>
        <g>
          <path class="cls-24" d="M100.89,114.29c1.71-2.01,4.91-2.18,7.08-3.44.05-.03.12.05.07.09-1.75,1.45-4.12,1.6-5.89,2.98-1.68,1.3-2.22,3.61-.15,4.85,1.27.76,2.91.92,4.35,1.09,3.41.4,8.16.5,9.92,4.09.08.17-.15.38-.28.21-2.31-2.94-5.44-3.36-8.96-3.67-2.03-.18-4.6-.27-6.14-1.81-1.25-1.24-1.11-3.09,0-4.39Z"/>
          <g>
            <path class="cls-20" d="M115.92,115.13l-.02,1.37h0c-.02,1.74-2.58,3.13-5.68,3.1-3.1-.03-5.63-1.47-5.62-3.21h0l.02-1.37,11.29.11Z"/>
            <path class="cls-25" d="M104.63,115.02c-.02,1.75,2.5,3.2,5.61,3.23,3.12.03,5.66-1.37,5.68-3.12s-2.5-3.2-5.61-3.23c-3.12-.03-5.66,1.37-5.68,3.12Z"/>
          </g>
          <path class="cls-17" d="M114.21,101.59v13.37h-.01c-.01,1.21-1.8,2.18-3.96,2.16-2.16-.02-3.93-1.02-3.91-2.24h0v-13.37s7.88.08,7.88.08Z"/>
          <g>
            <path class="cls-15" d="M107.18,108.16c-.3-.31-.58-.63-.85-.95v-.79c.33-.03.65-.06.96-.1,1.62-.21,3.29-.61,4.78-1.28.95-.43,1.6-.9,2.13-1.49v2.48c-1.52,1.57-4.4,2.12-7.02,2.13Z"/>
            <path class="cls-15" d="M114.2,112.92v2.18c-1.8.62-5.95.76-7.87-1.9v-2.36c1.78,2.19,5.86,3.14,7.87,2.08Z"/>
          </g>
          <g>
            <path class="cls-24" d="M106.33,107.78v-2.21c.81.72,1.69,1.33,2.33,1.71,1.66.98,3.58,1.74,5.53,2.03v2.04c-4.42-.26-6.94-2.53-7.87-3.56Z"/>
            <path class="cls-24" d="M106.34,101.51l2.05.02c1.39,1.93,3.48,3.59,5.81,3.97v1.84c-3.19-.8-6.42-2.53-7.87-5.42v-.41Z"/>
          </g>
          <g>
            <path class="cls-20" d="M115.92,99.37l-.02,1.37h0c-.02,1.74-2.58,3.13-5.68,3.1-3.1-.03-5.63-1.47-5.62-3.21h0l.02-1.37,11.29.11Z"/>
            <path class="cls-25" d="M104.63,99.26c-.02,1.75,2.5,3.2,5.61,3.23,3.12.03,5.66-1.37,5.68-3.12.02-1.75-2.5-3.2-5.61-3.23-3.12-.03-5.66,1.37-5.68,3.12Z"/>
          </g>
          <path class="cls-15" d="M106.33,109.99v2.18c1.8.62,5.95.76,7.87-1.9v-2.36c-1.78,2.19-5.86,3.14-7.87,2.08Z"/>
          <path class="cls-24" d="M114.2,113.38s-2.27,1.51-4.6,1.64c-2.33.13-3.28-.15-3.28-.15v-.49s.98.43,3.63-.17c2.65-.6,4.24-1.68,4.24-1.68v.84Z"/>
        </g>
        <g>
          <path class="cls-16" d="M53.5,46.02c2.65,3.93.86,5.4.39,11.58-.47,6.19-.39,12.81-.39,12.81h-4.31s.29-9.18-.8-11.93c-.7-1.76-2.08-1.66-2.08-1.66l7.19-10.81Z"/>
          <path class="cls-16" d="M49.19,70.41c0,.55.96,1,2.15,1s2.16-.45,2.16-1-.96-1-2.16-1-2.15.45-2.15,1Z"/>
          <path class="cls-18" d="M52.33,43.09c-.25-3.56-3.52-6.12-10.64.62-6.23,5.89-11.31,14.06-15.53,19.3-4.35,5.4-8.9,10.54-12.42,13.9-2.59,2.48,5.02,9.61,5.02,9.61,0,0,12.15-2.03,16.34-10.31,4.18-8.28,9.18-16.1,13.4-21.41,4.22-5.3,4.15-7.14,3.83-11.71Z"/>
          <path class="cls-16" d="M52.35,47.61c5.94,2.94-2.09,9.64-6.64,15.14-4.55,5.49-6.44,12.37-9.25,20.18-2.8,7.81-14.03,9.06-21.71,9.06s-3.96-8.44,3.41-14.69c7.37-6.25,11.1-13.23,18.33-22.01,7.01-8.52,11.42-9.87,15.86-7.68Z"/>
          <path class="cls-19" d="M2.21,89.09c1.6-4.59,8-9.03,10.86-11.56,1.58-2.11,4.06-5.68,6.31-10.05,2.94-5.7,4.6-10.91,6.18-17.93-2.04-1.95-1.21-3.66,2.09-5.35-.61-.51-2.36-1.98-2.09-3.64.27-1.72,2.57-3.66,2.49-5.72-.48-12.3-.75-27.93-.4-27.25.42.82,26.8-3.6,26.8-3.6,0,0-1.45,9.06-2.13,19.1-.51,7.53,0,12.41,2.13,17.47.55,1.31-1.36,2.53-1.02,3.64.82,1.86,1.58,4.24,1.49,6.54-.2,4.82-4.3,6.47-10.68,15.11-4.91,6.65-5.95,11.76-7.78,17.07-1.28,3.71-4.42,7.12-9.58,8.83-2.23.74-6.57,2.27-9.56,2.26-9.3,0-16.19-1.83-15.11-4.93Z"/>
          <path class="cls-23" d="M2.21,89.09c1.6-4.59,8-9.03,10.86-11.56,1.58-2.11,4.06-5.68,6.31-10.05,2.94-5.7,4.6-10.91,6.18-17.93-2.04-1.95-1.21-3.66,2.09-5.35-.61-.51-2.36-1.98-2.09-3.64.27-1.72,2.57-3.66,2.49-5.72-.48-12.3-.75-27.93-.4-27.25.11.22,2.05.06,4.82-.27-.85,8.09-.9,17.11-.5,25.21.13,2.69-.11,3.62-1.01,6.01-.23.6-1.72,1.66-1.75,2.34-.09,1.83,1.04,2.18,2.29,3.46-3,2.33-1.87,5.42-1.24,6.11.53.58,1.08.8,1.4,1.46-.18,7.85-1.52,15.21-7.08,21.24-2.56,2.77-6.04,5.17-9.18,7.23-2.47,1.62-5.51,2.83-7.46,5.14-2.14,2.54-1.98,5.2-.62,7.57-3.67-.83-5.75-2.2-5.11-4.01Z"/>
          <path class="cls-16" d="M29.75,85.74c4.34-3.72,5.42-8.63,7.81-13.73,1.29-2.74,2.6-5.45,4.47-7.85,2.45-3.14,5.32-5.91,7.88-8.96,2.15-2.56,3.89-5.38,4.47-8.39.36,1.26.59,2.61.54,3.93-.2,4.82-4.3,6.47-10.68,15.11-4.91,6.65-5.95,11.76-7.78,17.07-1.81,5.25-9.43,11-19.14,11.1,3.94-3,8.06-4.54,12.43-8.29Z"/>
          <path class="cls-16" d="M51.83,44.54s-1.07,3.26-5.52,4.47c-4.44,1.21-9.16-1.31-9.16-1.31,0,0,6.09.74,8.69-.46,2.59-1.21,5.99-2.7,5.99-2.7Z"/>
          <path class="cls-16" d="M48.58,33.52s.6,3.94-5.81,6.21c-6.41,2.27-12.22-.22-12.22-.22,0,0,4.12-.62,9.23-1.57,5.1-.96,8.8-4.42,8.8-4.42Z"/>
          <path class="cls-16" d="M41.35,34.2s-4.25-.52-6.99-2.77c-2.74-2.24-3.81-5.83-3.81-5.83,0,0-.18,7.21,3.42,8.94,3.61,1.73,7.38-.35,7.38-.35Z"/>
          <path class="cls-16" d="M41.35,51.97s-4.86-.83-8.35-1.09c-3.49-.26-6.58-1.8-6.07-1.24.51.56,2.03,2.59,6.95,3.04,4.92.45,8.33-1.11,8.33-1.11l-.86.41Z"/>
          <path class="cls-16" d="M54.46,3.99c-.52,5.4-10.17,5.22-16.6,6.18-6.43.96-10.85,1.18-10.2-2.58.65-3.76,3.96-4.65,13.38-6.65,7.4-1.57,13.86-1.58,13.42,3.05Z"/>
        </g>
        <g>
          <path class="cls-16" d="M88.74,48.36c2.65,3.93.86,5.4.39,11.58-.47,6.19-.39,12.81-.39,12.81h-4.31s.29-9.18-.8-11.93c-.7-1.76-2.08-1.66-2.08-1.66l7.19-10.81Z"/>
          <path class="cls-16" d="M84.43,72.76c0,.55.96,1,2.16,1s2.15-.45,2.15-1-.96-1-2.15-1-2.16.45-2.16,1Z"/>
          <path class="cls-18" d="M87.57,45.43c-.25-3.56-3.52-6.12-10.64.62-6.23,5.89-11.31,14.06-15.53,19.3-4.35,5.4-8.9,10.54-12.42,13.9-2.59,2.48,5.02,9.61,5.02,9.61,0,0,12.15-2.03,16.34-10.31,4.18-8.28,9.18-16.11,13.4-21.41,4.22-5.3,4.15-7.14,3.83-11.71Z"/>
          <path class="cls-16" d="M87.59,49.95c5.94,2.94-2.09,9.64-6.64,15.14s-6.44,12.37-9.25,20.18c-2.8,7.81-14.03,9.06-21.71,9.06s-3.96-8.44,3.41-14.68c7.37-6.25,11.1-13.23,18.33-22.01,7.01-8.52,11.42-9.87,15.86-7.68Z"/>
          <path class="cls-19" d="M37.45,91.43c1.6-4.59,8-9.03,10.86-11.56,1.58-2.11,4.06-5.68,6.31-10.05,2.94-5.7,4.6-10.91,6.18-17.93-2.04-1.95-1.21-3.66,2.09-5.35-.61-.51-2.36-1.98-2.09-3.64.27-1.72,2.57-3.66,2.49-5.72-.48-12.3-.75-27.93-.4-27.25.42.82,26.8-3.6,26.8-3.6,0,0-1.45,9.06-2.13,19.1-.51,7.53,0,12.41,2.13,17.47.55,1.31-1.36,2.53-1.02,3.64.82,1.86,1.58,4.24,1.49,6.54-.2,4.82-4.3,6.47-10.68,15.11-4.91,6.65-5.95,11.76-7.78,17.07-1.28,3.71-4.42,7.12-9.58,8.83-2.23.74-6.57,2.27-9.56,2.26-9.3,0-16.19-1.83-15.11-4.93Z"/>
          <path class="cls-23" d="M37.45,91.43c1.6-4.59,8-9.03,10.86-11.56,1.58-2.11,4.06-5.68,6.31-10.05,2.94-5.7,4.6-10.91,6.18-17.93-2.04-1.95-1.21-3.66,2.09-5.35-.61-.51-2.36-1.98-2.09-3.64.27-1.72,2.57-3.66,2.49-5.72-.48-12.3-.75-27.93-.4-27.25.11.22,2.05.06,4.82-.27-.85,8.09-.9,17.11-.5,25.21.13,2.69-.11,3.62-1.01,6.01-.23.6-1.72,1.66-1.75,2.34-.09,1.83,1.04,2.18,2.29,3.46-3,2.33-1.87,5.42-1.24,6.11.53.58,1.08.8,1.4,1.46-.18,7.85-1.52,15.21-7.08,21.24-2.56,2.77-6.04,5.17-9.18,7.23-2.47,1.62-5.51,2.83-7.46,5.14-2.14,2.54-1.98,5.2-.62,7.57-3.67-.83-5.75-2.2-5.11-4.01Z"/>
          <path class="cls-16" d="M64.99,88.08c4.34-3.72,5.42-8.63,7.81-13.73,1.29-2.74,2.6-5.45,4.47-7.85,2.45-3.14,5.32-5.91,7.88-8.96,2.15-2.56,3.89-5.38,4.47-8.39.36,1.26.59,2.61.54,3.93-.2,4.82-4.3,6.47-10.68,15.11-4.91,6.65-5.95,11.76-7.78,17.07-1.81,5.25-9.43,11-19.14,11.1,3.94-3,8.06-4.54,12.43-8.29Z"/>
          <path class="cls-16" d="M87.07,46.89s-1.07,3.26-5.52,4.47c-4.44,1.21-9.16-1.31-9.16-1.31,0,0,6.09.74,8.69-.46,2.59-1.21,5.99-2.7,5.99-2.7Z"/>
          <path class="cls-16" d="M83.82,35.87s.6,3.94-5.81,6.21c-6.41,2.27-12.22-.22-12.22-.22,0,0,4.12-.62,9.23-1.57,5.1-.96,8.8-4.42,8.8-4.42Z"/>
          <path class="cls-16" d="M76.59,36.54s-4.25-.52-6.99-2.77c-2.74-2.24-3.81-5.83-3.81-5.83,0,0-.18,7.21,3.42,8.94s7.38-.35,7.38-.35Z"/>
          <path class="cls-16" d="M76.59,54.31s-4.86-.83-8.35-1.09c-3.49-.26-6.58-1.8-6.07-1.24s2.03,2.59,6.95,3.04c4.92.45,8.33-1.11,8.33-1.11l-.86.41Z"/>
          <path class="cls-16" d="M89.7,6.34c-.52,5.4-10.17,5.22-16.6,6.18-6.43.96-10.85,1.18-10.2-2.58.65-3.76,3.96-4.65,13.38-6.65,7.4-1.57,13.86-1.58,13.42,3.05Z"/>
        </g>
        <g>
          <path class="cls-24" d="M102.92,182.31c-3.6-4.02-9.42-6.3-14.61-7.29-.67-.13-1.35-.24-2.03-.32-.1-.12-2.21-1.97-5.72-3.1-4.62-1.48-9.73-.97-14.05-.27-8.87,1.44-17.34,4.38-26.43,2.57-.17-.03-.24.21-.07.27,7.4,2.62,15.33.36,22.72-1.2,3.71-.78,7.48-1.41,11.28-1.36,1.88.02,3.76.21,5.59.65,2.07.5,3.81,1.5,5.73,2.35-4.5-.44-9.09.01-13.38,1.47-2.39.81-10.68,4.01-6.76,7.65,1.57,1.46,4.29,1.57,6.31,1.59,2.89.03,5.79-.55,8.45-1.68,2.44-1.03,5.51-2.65,6.67-5.2.41-.9.48-1.85.24-2.67.73.11,1.46.25,2.18.41,5.15,1.17,9.21,3.73,13.53,6.6.29.19.58-.23.36-.47ZM84.6,179.83c-1.06,1.03-2.41,1.84-3.72,2.51-2.67,1.37-5.66,2.11-8.66,2.2-1.47.04-3.04-.02-4.47-.39-.65-.17-1.35-.37-1.86-.84-1.4-1.31-.39-3.18.9-4.03,2.16-1.42,4.78-2.32,7.27-2.95,3.92-1,8.07-1.2,12.09-.65.35,1.44-.49,3.11-1.56,4.15Z"/>
          <g>
            <path class="cls-9" d="M60.73,146.41s-4.37,3.96-5.79,6.24c-1.42,2.28,3.1,2.12-1.05,6.46-3.62,3.79-31.23,20.75-31.23,20.75v2.56s3.69,3.75,16.38-5.15c7.93-5.56,14.94-12.07,18.7-16.39,3.24-3.72,2.66-4.67,2.01-5.46-1.73-2.12-.7-3.34,2.16-6.07,3.22-3.08-1.17-2.95-1.17-2.95Z"/>
            <polygon class="cls-5" points="53.52 139.19 52.38 140.3 52.38 143.03 53.72 144.14 53.52 139.19"/>
            <polygon class="cls-5" points="74.4 131.99 75.15 135.39 76.08 134.58 76.09 131.87 74.4 131.99"/>
            <polygon class="cls-9" points="7.28 171 7.28 173.56 5.92 171.97 5.92 169.27 7.28 171"/>
            <path class="cls-5" d="M69.43,129.79c-7.4-.75-10.91,4.73-15.3,9.54-3.85,4.21-.51,6.62,1.86,7.51,1.8.67,3.65.66,3.65.66l-2.14,2.07,3.47.7s6.58-5.33,11.26-9.77c3.63-3.44,5.26-6.6,2.38-8.19-.84-.47-3.52-2.34-5.18-2.51ZM72.5,135.77c-.52,1.39-3.14,3.98-6.16,6.8-2.6,2.43-3.59,3.13-6.91,2.46s-3.98-2.56-1.9-4.91c2.07-2.35,5.17-6.28,8.83-6.84s6.91.47,6.14,2.5Z"/>
            <path class="cls-9" d="M68.77,151.05s-5.95,3.05-9.9,3.87c-3.95.82-3.68-1.79-11.2.61-7.52,2.4-40.39,18.03-40.39,18.03,0,0-6.5-2.13,8.93-9.45,9.64-4.58,20.91-8.62,28.39-10.8,6.45-1.87,8.64-2.72,10.02-2.35,3.67,1,4.5.74,8.59-.74,4.68-1.69,5.56.83,5.56.83Z"/>
            <path class="cls-5" d="M95.8,145.72c-.66-2.16-2.42-4.45-5.31-4.43-2.83.02-7.66,1.43-11.47,2.77-7.69,2.71-15.47,6.71-15.47,6.71v2.56l4.27-1.41s-.03,1.35,1.13,2.39c1.53,1.37,5.71,3.29,13,1.07,8.33-2.53,15.16-5.4,13.86-9.67ZM92.11,148.04c-1.82,1.46-7.42,3.25-11.5,4.45-4.08,1.2-7.38,1.75-8.54-.16-1.16-1.92.06-2.49,4.27-3.99,4.88-1.74,9.37-3.25,11.77-3.56,2.53-.32,4.17.56,4.52,1.87.14.51.19.81-.53,1.39Z"/>
            <polygon class="cls-5" points="95.91 143.63 95.96 146.54 94.78 146.85 94.39 144.98 95.91 143.63"/>
          </g>
          <g>
            <path class="cls-21" d="M60.73,143.85s-4.37,3.96-5.79,6.24c-1.42,2.28,3.1,2.12-1.05,6.46-2.11,2.21-10.19,8.23-17.59,13.59-.31.23-.62.45-.93.68-6.75,4.88-12.7,9.05-12.7,9.05,0,0,3.69,3.75,16.38-5.15,7.93-5.56,14.94-12.07,18.7-16.39,3.24-3.72,2.66-4.67,2.01-5.46-1.73-2.12-.7-3.34,2.16-6.07,3.22-3.08-1.17-2.95-1.17-2.95Z"/>
            <path class="cls-7" d="M70.89,128.77c-7.4-.75-12.36,3.19-16.75,8-3.85,4.21-.51,6.62,1.86,7.51,1.8.67,3.44.76,3.44.76l-1.93,1.97,3.47.7s6.58-5.33,11.26-9.77c4.69-4.44,6.04-8.41-1.35-9.16ZM72.5,133.2c-.52,1.39-3.14,3.98-6.16,6.8-2.6,2.43-3.59,3.13-6.91,2.46-3.32-.67-3.98-2.56-1.9-4.91,2.07-2.36,5.17-6.28,8.83-6.84s6.91.47,6.14,2.5Z"/>
            <path class="cls-8" d="M68.77,148.49s-5.95,3.05-9.9,3.87-3.68-1.79-11.2.61-40.39,18.03-40.39,18.03c0,0-6.5-2.13,8.93-9.45,9.64-4.58,20.91-8.62,28.39-10.8,6.45-1.87,8.08-1.54,9.46-1.16,3.67,1,5.63.31,9.73-1.17,4.68-1.69,4.98.07,4.98.07Z"/>
            <path class="cls-7" d="M95.8,143.15c-1.3-4.27-8.18-3.49-15.87-.78-7.69,2.71-17.56,6.51-17.56,6.51l1.21,1.95,4.23-1.47s-.03,1.35,1.13,2.39c1.53,1.37,5.71,3.29,13,1.07,8.33-2.53,15.16-5.4,13.86-9.67ZM92.44,145.76c-.98,2.12-7.78,3.9-11.85,5.1-4.08,1.2-7.35.82-8.51-1.1-1.16-1.92.06-2.49,4.27-3.99,4.88-1.74,9.37-3.25,11.77-3.56,3.52-.44,5.31,1.43,4.33,3.55Z"/>
            <path class="cls-9" d="M58.17,151.13c0,.48-.58.87-1.3.87s-1.3-.39-1.3-.87.58-.87,1.3-.87,1.3.39,1.3.87Z"/>
          </g>
          <path class="cls-24" d="M36.29,170.15c-1.29-1.36-2.16-2.74-2.8-4.85-.63-2.07-1.07-4.24-2.22-6.11-2.33-3.76-6.88-4.49-10.96-3.94-2.79.38-5.47,1.41-8.28,1.64-2.79.23-4.21-.43-4.26-1.85-.05-1.36.68-2.32,1.83-2.75,1.22-.74,2.75-1.15,4.1-1.61,5.84-1.96,11.8-2.98,17.88-3.84,1.14-.16.79-.71-.08-.64-5.84.47-14,2.15-20.45,4.51-1.72.63-3.67,1.74-3.99,3.79-.31,1.98,1.3,3.1,3.08,3.33,6.34.83,14.58-5.32,19.71,1.11,2.17,2.72,2.62,9.01,5.49,11.88.08.08.72-.43.94-.67Z"/>
        </g>
        <g>
          <g>
            <g>
              <path class="cls-24" d="M107.56,77.56l.05,4.95h0c.04,4.38,6.49,7.87,14.28,7.8,7.78-.08,14.16-3.69,14.12-8.07h0l-.05-4.95-28.4.27Z"/>
              <path class="cls-17" d="M135.95,77.28c.04,4.41-6.28,8.05-14.12,8.13-7.84.08-14.23-3.44-14.27-7.85-.04-4.41,6.28-8.05,14.12-8.13s14.23,3.44,14.27,7.85Z"/>
            </g>
            <g>
              <path class="cls-24" d="M114.66,73.5l.02,2.48h0c.02,2.19,3.25,3.94,7.15,3.9,3.9-.04,7.09-1.85,7.07-4.04h0l-.02-2.48-14.22.14Z"/>
              <path class="cls-10" d="M128.88,73.36c.02,2.21-3.14,4.03-7.07,4.07-3.93.04-7.13-1.72-7.15-3.93-.02-2.21,3.14-4.03,7.07-4.07,3.93-.04,7.13,1.72,7.15,3.93Z"/>
            </g>
            <path class="cls-22" d="M118.38,19.73v53.38c0,1.13,1.65,2.05,3.66,2.05s3.66-.92,3.66-2.05V19.73h-7.32Z"/>
          </g>
          <g>
            <path class="cls-20" d="M127.72,3.59c-3.57-1.98-10.07-5.72-18.1-1.08-8.04,4.64-4.1,11.23-3.04,15.54.57,2.33,1.07,5.42,1.41,7.77.33,2.29,1.59,4.33,3.48,5.66,2.67,1.87,6.42,4.33,8.36,4.8,5.17,1.26,8.8.63,12.31.49,5.34-.22,9.67,2.26,18.71,5.63,10.69,3.99,25.9-1.29,24.49-7.82-1.7-7.9-13.05-14.7-27.31-20.02-11.52-4.3-17.08-9.18-20.31-10.97Z"/>
            <path class="cls-14" d="M151.99,33.58c-13.36-6-26.32-5.49-34.68-15.57-5.11-6.16-9.35-9.4-12.04-11.04-1.64,3.84.55,8.04,1.3,11.08.57,2.33,1.07,5.42,1.41,7.77.33,2.29,1.59,4.33,3.48,5.66,2.67,1.87,6.42,4.33,8.36,4.8,5.17,1.26,8.8.63,12.31.49,5.34-.22,9.67,2.26,18.71,5.63,4.57,1.7,9.96,1.71,14.53.66-2.26-3.4-6.78-6.52-13.39-9.49Z"/>
            <path class="cls-4" d="M132.14,6.46s-3.57,3.48-7.5,5.91c-3.93,2.43-5.85,3.73-7.78,6.73-1.92,3-1.79,7.08,4.86,9.92,5.33,2.28,6.85,7.96,6.85,7.96h2.58s-.84-6.44-6.5-9.41c-5.66-2.97-9.12-4.17-5.28-8.47,3.84-4.3,5.5-3.8,9.2-6.73,3.57-2.83,5.91-4.41,5.91-4.41l-2.34-1.5Z"/>
          </g>
        </g>
        <path class="cls-3" d="M87.7,110.41c-1.44-.83-5.51-3.07-9.99-1.67-3.69,1.16-7.75,4.47-10.55,8.37-1.71,2.36-3.82,4.71-5.21,6.18l.97.56-27.73,17.05,29.89-15.8,1,.58c2.56-.81,6.61-2.03,10.71-3.01,6.75-1.62,12.46-4.15,13.39-6.37,1.73-4.15-1.03-5.06-2.47-5.89Z"/>
        <g>
          <path class="cls-20" d="M72.96,109.19c1.44-1.7,3-3.74,4.38-5.03.47-.44,1.21-1.14,2.38-1.57,1.03-.38,2.12-.7,3.29-.7,4.45,0,8.06,3.61,8.06,8.06,0,2.69-1.31,5.06-3.33,6.53-.23.17-1.63,1.07-2.83,1.43-1.35.4-2.74.81-4.19,1.03-4.44.67-11.24,4.06-11.24,4.06l-3.85-7.95s5.31-3.47,7.33-5.85Z"/>
          <path class="cls-14" d="M77.7,114.8c2.52-.53,5.49-.51,7.65-2.09,2.27-1.66,2.36-4.82,1.38-7.24-.61-1.5-1.66-2.72-2.96-3.54,4.1.38,7.31,3.83,7.31,8.03,0,2.69-1.31,5.06-3.33,6.53-.23.17-1.63,1.07-2.83,1.43-1.35.4-2.74.81-4.19,1.03-4.44.67-11.24,4.06-11.24,4.06l-1.55-3.21c1.72-1.19,7.72-4.56,9.77-4.98Z"/>
          <path class="cls-4" d="M75.01,119.5c2.38-.93,4.83-1.67,7.29-2.34,1.77-.48,3.63-.9,5.12-2.04,4.52-3.46,2.71-9.47-1.15-12.54,2.82,1.26,4.79,4.07,4.79,7.36,0,2.69-1.31,5.06-3.33,6.53-.23.17-1.63,1.07-2.83,1.43-1.35.4-2.74.81-4.19,1.03-4.44.67-11.24,4.06-11.24,4.06l-.4-.82c1.88-1.07,3.92-1.89,5.92-2.67Z"/>
          <g>
            <path class="cls-21" d="M65.64,115.05h0c.52-.41,1.25-.43,2.06.04,1.6.92,2.89,3.39,2.89,5.52,0,1.23-.43,2.07-1.1,2.39h0s-2.17,1.26-2.17,1.26l-3.71-8.05,2.03-1.16Z"/>
            <path class="cls-13" d="M66.21,120.62c1.46-.74,2.87-1.62,3.97-2.22.26.73.41,1.49.41,2.21,0,1.23-.43,2.07-1.1,2.39h0s-2.17,1.26-2.17,1.26l-1.42-3.08c.19-.15.1-.45.32-.56Z"/>
            <path class="cls-6" d="M70.51,121.42c-.15.78-.52,1.33-1.03,1.57h0s-2.17,1.26-2.17,1.26l-.38-.83c1.24-.67,2.73-1.55,3.58-2Z"/>
            <path class="cls-8" d="M62.57,118.56c0,2.13,1.29,4.6,2.89,5.52,1.6.92,2.89-.06,2.89-2.18s-1.29-4.6-2.89-5.52c-1.6-.92-2.89.06-2.89,2.18Z"/>
          </g>
          <path class="cls-25" d="M82.1,104.05c1.25.88.43,3.08-2.62,4.24-3.05,1.16-4.26.17-2.32-2.06,1.49-1.72,3.43-3.24,4.94-2.17Z"/>
          <path class="cls-21" d="M34.31,137.98s3.78-2.94,8.73-5.96c3.7-2.26,21.89-12.83,21.89-12.84.11-.08.26-.08.42.01.33.19.6.7.6,1.14,0,.2-.06.34-.14.43h0s-.09.07-.15.08c-1.57.89-15.97,9.03-20.31,11.5-5.54,3.16-11.04,5.63-11.04,5.63Z"/>
          <path class="cls-13" d="M65.84,119.83c.07.17.11.34.11.51,0,.2-.06.34-.14.43h0s-.09.07-.15.08c-1.57.89-15.97,9.03-20.31,11.5-5.54,3.16-11.04,5.63-11.04,5.63,0,0,25.68-14.54,31.53-18.16Z"/>
        </g>
        <path class="cls-3" d="M57.64,115.89l-49.72,27.52-4-2.53,45.69-29.63c1.92-1.11,5.27-.97,7.48.31h0c2.21,1.28,2.46,3.21.54,4.32Z"/>
        <g>
          <g>
            <g>
              <path class="cls-24" d="M31.52,125.52s7.18-3.06,15.61-7.17c8.44-4.12,11.44-6.68,8.45-8.41-2.99-1.72-7.87.62-12.1,3.16-4.23,2.54-16.24,9.96-16.24,9.96l4.27,2.46Z"/>
              <path class="cls-24" d="M52.43,107.26s2.45-1.39,3.86,0c1.41,1.39,1.3,3.9-.17,5.48-1.94,2.07-6.78,1.29-6.78,1.29l3.09-6.77Z"/>
              <path class="cls-17" d="M31.52,122.31s7.18-3.06,15.61-7.17c8.44-4.12,11.44-6.68,8.45-8.41-2.99-1.72-7.87.62-12.1,3.16-4.23,2.54-16.24,9.96-16.24,9.96l4.27,2.46Z"/>
              <path class="cls-15" d="M43.67,112.01c-3.82,2.25-7.78,4.48-15.15,8.58l-1.27-.74s12.01-7.42,16.24-9.96c4.23-2.54,9.11-4.88,12.1-3.16.92.53,1.27,1.15,1.07,1.86-3.63-3.26-9.74,1.5-12.98,3.41Z"/>
              <polygon class="cls-1" points="27.25 119.85 31.52 122.31 31.52 125.52 27.25 123.05 27.25 119.85"/>
            </g>
            <path class="cls-21" d="M28.51,119.11c.43-.25.93-.27,1.57.1,1.28.74,2.32,2.72,2.32,4.43,0,.98-.35,1.66-.89,1.91h0s-1.74,1.01-1.74,1.01l-2.97-6.45,1.71-1Z"/>
            <path class="cls-2" d="M27.1,121.49l-.3-1.38,1.71-1c.43-.25.93-.27,1.57.1.14.08.27.18.41.29-.64.35-2.24,1.22-3.38,1.99Z"/>
            <path class="cls-13" d="M28.91,123.8c1.17-.6,2.61-1.48,3.22-1.75.17.53.27,1.07.27,1.59,0,.98-.35,1.66-.89,1.91h0s-1.74,1.01-1.74,1.01l-1.14-2.47c.16-.12.1-.21.27-.3Z"/>
            <path class="cls-8" d="M25.97,122c0,1.71,1.04,3.69,2.32,4.42,1.28.74,2.32-.05,2.32-1.75s-1.04-3.69-2.32-4.42c-1.28-.74-2.32.05-2.32,1.75Z"/>
            <path class="cls-9" d="M26.57,122.66c0,1.12.68,2.41,1.52,2.9.84.48,1.52-.03,1.52-1.15s-.68-2.41-1.52-2.9c-.84-.48-1.52.03-1.52,1.15Z"/>
          </g>
          <g>
            <polygon class="cls-13" points="10.08 127.5 9.8 126.94 9.24 126.65 8.76 128.55 7.65 128.26 7.57 130.04 6.3 130.35 6.62 131.85 5.32 132.72 6.01 133.79 4.8 135.14 5.8 135.68 4.8 137.37 5.36 137.67 6.01 137.32 5.32 139.2 5.88 139.49 6.62 138.56 6.3 140.43 6.86 140.73 7.57 139.27 7.65 140.96 8.21 141.26 8.76 139.4 9.24 140.73 9.8 141.03 10.08 138.91 10.92 139.77 11.48 140.06 11.4 137.87 12.51 138.16 12.59 136.37 13.86 136.07 13.54 134.56 14.84 133.69 14.15 132.62 15.36 131.27 14.36 130.74 15.92 129.34 15.36 129.04 14.15 129.1 15.41 127.51 14.84 127.22 13.54 127.86 14.42 126.28 13.86 125.98 12.59 127.14 13.07 125.75 12.51 125.45 11.4 127.02 11.48 125.98 10.92 125.68 10.08 127.5"/>
            <polygon class="cls-8" points="10.64 127.8 9.8 126.94 9.32 128.84 8.21 128.55 8.13 130.34 6.86 130.64 7.18 132.15 5.88 133.01 6.57 134.09 5.36 135.43 6.36 135.97 5.36 137.67 6.57 137.61 5.88 139.49 7.18 138.85 6.86 140.73 8.13 139.57 8.21 141.26 9.32 139.69 9.8 141.03 10.64 139.2 11.48 140.06 11.96 138.16 13.07 138.45 13.16 136.66 14.42 136.36 14.1 134.86 15.41 133.99 14.71 132.91 15.92 131.57 14.92 131.03 15.92 129.34 14.71 129.39 15.41 127.51 14.1 128.15 14.42 126.28 13.16 127.43 13.07 125.75 11.96 127.31 11.48 125.98 10.64 127.8"/>
          </g>
          <path class="cls-9" d="M29.2,125.54l-18.42,10.12c-.65.36-1.45-.11-1.45-.86v-.47c0-.99.51-1.91,1.34-2.44l16.51-10.49,2.02,4.14Z"/>
          <path class="cls-8" d="M11.35,133.41c0,.44-.27.94-.59,1.13-.33.19-.59-.01-.59-.45s.27-.94.59-1.13c.33-.19.59.01.59.45Z"/>
        </g>
      </g>
    </g>
  </g>
</svg>