<?xml version="1.0" encoding="UTF-8"?>
<svg id="Layer_1" data-name="Layer 1" xmlns="http://www.w3.org/2000/svg" viewBox="0 0 260.58 250">
  <defs>
    <style>
      .cls-1 {
        fill: #000;
        stroke-width: 0px;
      }
    </style>
  </defs>
  <path class="cls-1" d="M123.28,217.66c-5.16-.7-10.34-1.27-15.36-2.73-36.7-10.68-60.01-34.57-67.51-71.98-6.66-33.19,3.46-62.04,28.05-85.35,14.15-13.41,31.26-21.29,50.66-23.54,31.09-3.6,57.63,6.07,79.19,28.66,13.64,14.29,21.54,31.54,24.06,51.19.18,1.36.38,2.72.57,4.08v15.11c-.47,3.25-.73,6.56-1.45,9.75-8.41,37.14-30.85,61.2-67.4,72.01-5.12,1.51-10.43,2.09-15.7,2.8h-15.11ZM130.87,209.7c46.25.19,84.04-37.83,84.16-83.91.12-46.44-37.68-84.53-84.35-84.45-46.22.08-83.87,37.67-84.06,83.85-.19,46.62,37.76,84.73,84.25,84.52Z"/>
  <path class="cls-1" d="M130.85,133c15.83,0,31.66,0,47.48,0,2.6,0,2.6,0,2.61,2.58.09,23.49-14.08,43-35.95,49.52-28.8,8.59-59.02-10.46-63.6-40.07-.46-2.97-.71-5.94-.67-8.95.03-3.08,0-3.08,3.01-3.08,15.71,0,31.42,0,47.12,0ZM130.77,141.11c-13.18,0-26.37,0-39.55,0-2.01,0-2.23.26-1.97,2.14,3.28,23.71,26.93,40.09,50.37,34.88,17.23-3.83,29.8-17.12,32.74-34.64.36-2.13.15-2.39-2.04-2.39-13.18,0-26.37,0-39.55,0Z"/>
  <path class="cls-1" d="M115.46,106.56c-.12,0-.24,0-.36,0q-3.26,0-4.05-3.02c-1.33-5.1-5.86-8.55-11.12-8.48-5.23.07-9.65,3.69-10.81,8.86q-.59,2.64-3.32,2.64c-1.08,0-2.16-.06-3.23.01-1.42.09-1.91-.51-1.81-1.92.62-8.32,7.32-15.77,15.61-17.33,10.98-2.05,21.25,5.22,22.95,16.25.42,2.7.18,2.97-2.61,2.98-.42,0-.84,0-1.26,0Z"/>
  <path class="cls-1" d="M176.88,106.56c-.06,0-.12,0-.18,0q-3.43,0-4.28-3.22c-1.33-5.09-6.17-8.53-11.64-8.27-5.07.24-9.68,4.3-10.34,9.39-.22,1.73-.87,2.26-2.49,2.13-1.25-.1-2.52-.1-3.77,0-1.66.13-2.11-.64-1.94-2.14.66-5.81,3.35-10.47,8.07-13.86,12.1-8.68,29.12-.88,30.57,13.94.14,1.45-.29,2.18-1.84,2.04-.71-.06-1.44-.01-2.16,0Z"/>
</svg>