<?xml version="1.0" encoding="UTF-8"?>
<svg id="Layer_1" data-name="Layer 1" xmlns="http://www.w3.org/2000/svg" viewBox="0 0 260.58 250">
  <defs>
    <style>
      .cls-1 {
        fill: #000;
        stroke-width: 0px;
      }
    </style>
  </defs>
  <path class="cls-1" d="M232.78,95.75c-3.23,6.27-9.32,8.34-15.38,10.37-2.95.99-6,1.68-9.03,2.37-1.27.29-1.73.87-1.77,2.16-.18,4.96-1.29,9.78-3.47,14.2-4.18,8.45-4.71,17.42-4.45,26.58.05,1.69,1.11,1.48,2.17,1.51,6,.19,11.15,3.92,13,9.41,2.11,6.25-.02,12.74-5.56,16.42-1.31.87-1.66,1.8-1.65,3.25.05,9.75.03,19.5.02,29.25,0,4.36-1.23,5.62-5.51,5.62-25.6,0-51.21,0-76.81,0-4.28,0-5.52-1.26-5.52-5.61,0-9.68-.03-19.37.03-29.05.01-1.6-.37-2.61-1.81-3.57-5.19-3.49-7.39-9.81-5.67-15.54,1.82-6.04,6.95-10.03,13.25-10.14,1.59-.03,2.24-.44,2.19-2.14-.12-3.57.09-7.16-.41-10.72-.64-4.59-2.87-8.36-6.07-11.59-3.97-4.01-7.97-7.98-11.95-11.97-.52-.52-1.18-.96-1.51-1.57-2.54-4.66-6.91-5.56-11.65-5.98-4.69-.42-9.32-1.29-13.88-2.49-1.23-.32-2.09-.16-3.04.73-6.73,6.28-15.97,7.35-24.07,2.71-7.6-4.35-15.13-8.81-22.67-13.26-3.66-2.16-3.69-5.82-.03-7.98,7.42-4.39,14.85-8.76,22.35-13.02,8.09-4.6,15.94-4.16,23.42,1.49.16.12.37.21.47.37,1.77,2.9,4.2,2.55,7.06,1.85,5.92-1.45,12.02-2,18.05-2.85,1.19-.17,2.12-.56,2.9-1.5,3.04-3.64,6.82-6.27,11.28-7.87,1.32-.47,1.83-1.18,1.81-2.63-.08-5.5,0-11.01-.04-16.52-.04-6.05,2.67-10.53,8.02-13.13,5.22-2.54,10.33-1.85,14.92,1.78.85.68,1.36.62,2.21-.02,7.5-5.7,17.3-3.51,21.54,4.86.62,1.23,1.14,1.22,2.26.82,7.11-2.48,14.23.38,17.63,7.11.6,1.19,1.08,1.26,2.25.86,9.64-3.34,18.92,3.23,19.01,13.41.04,4.11.07,8.23-.02,12.34-.04,1.59.56,2.18,2.06,2.51,6.03,1.33,11.97,2.95,17.44,5.96,2.92,1.61,5.39,3.62,6.66,6.83v4.38ZM162.64,152.92c8.62,0,17.24-.02,25.86.02,1.44,0,2.03-.41,1.98-1.92-.09-2.65.04-5.31-.04-7.96-.21-6.56,1.22-12.76,3.88-18.71,1.57-3.52,2.86-7.14,3.6-10.93.52-2.66.11-3.01-2.61-2.63-5.77.8-11.56,1.41-17.38,1.82-6.08.42-12.16.82-18.26.76-1.23-.01-1.67.38-1.35,1.67.67,2.73.66,5.52.52,8.31-.13,2.66-.55,5.29-1.57,7.76-.79,1.92-2.83,2.89-4.71,2.43-1.87-.45-3.13-2.05-3.07-4.1.03-1.05.24-2.1.48-3.13,2.13-9.23-1.74-19.07-9.51-24.43-3.89-2.68-8.25-3.84-12.84-4.37-1.24-.14-2.33-.57-3.11-1.57-1.03-1.32-1.21-2.8-.52-4.31.77-1.69,2.18-2.4,4.01-2.4,7.23,0,14.45-.01,21.68,0,1.34,0,2.65-.12,3.94-.44,3.63-.88,6.13-4.63,5.57-8.29-.66-4.33-3.7-6.86-8.56-6.9-7.69-.06-15.38-.08-23.07,0-5.97.06-11.24,2.01-15.19,6.63-7.49,8.75-6.97,21.35,1.13,29.59,4.37,4.44,8.81,8.82,13.21,13.23,4.29,4.31,6.97,9.44,7.98,15.46.53,3.17.27,6.35.31,9.52.06,4.86.02,4.86,4.77,4.86,7.62,0,15.25,0,22.87,0ZM162.72,161.16c-11.93,0-23.87,0-35.8,0-1.2,0-2.38.05-3.55.37-2.8.77-4.58,3.59-4.04,6.42.58,3.08,2.85,4.83,6.54,4.86,6.63.05,13.26,0,19.89.02,3.35,0,5.17,1.5,5.14,4.16-.03,2.65-1.84,4.07-5.23,4.07-5.5,0-11.01.06-16.51-.03-1.67-.03-2.16.53-2.14,2.17.07,7.76.06,15.51,0,23.27-.01,1.58.39,2.21,2.1,2.21,22.41-.05,44.82-.05,67.23,0,1.74,0,2.1-.66,2.08-2.22-.06-7.76-.07-15.52,0-23.27.02-1.65-.51-2.18-2.16-2.15-5.63.08-11.27.02-16.91.04-1.45,0-2.79-.23-3.79-1.38-1.1-1.26-1.37-2.74-.75-4.27.72-1.79,2.16-2.6,4.08-2.6,6.63,0,13.26,0,19.89,0,1.07,0,2.12-.07,3.15-.34,2.52-.66,4.34-2.99,4.31-5.54-.03-2.58-1.85-4.82-4.4-5.48-1.11-.28-2.22-.31-3.35-.31-11.93,0-23.87,0-35.8,0ZM148.47,97.45c2.45,2.4,4.27,4.57,5.76,6.99.47.76,1.21.74,1.94.67,5.55-.57,11.12-.26,16.68-.61,10.53-.65,20.99-1.73,31.34-3.73,6.25-1.21,12.45-2.65,18.1-5.77.67-.37,1.7-.61,1.66-1.51-.03-.85-1.01-1.15-1.7-1.52-5.09-2.7-10.66-3.97-16.17-5.4-1.01-.26-1.42.25-1.94.91-6.2,7.88-15.84,8.19-22.57.7-.73-.82-1.22-.87-2.15-.37-3.69,1.99-7.58,2.32-11.52.88-1.28-.47-1.86-.13-2.52.97-1.59,2.67-3.8,4.73-6.59,6.17-3.06,1.58-6.34,1.77-10.32,1.62ZM76.24,92.73c.04-8.44-9.04-14.39-16.58-10.58-5.84,2.96-11.38,6.5-17.06,9.77-.87.5-1.06.92-.06,1.5,5.8,3.33,11.45,6.96,17.43,9.93,7.33,3.65,16.24-2.35,16.27-10.62ZM166.86,65.43s0,0,.01,0c0,3.24-.12,6.49.03,9.73.17,3.61,2.69,6.08,5.86,6.03,3.1-.05,5.6-2.47,5.68-5.99.14-6.48.12-12.97,0-19.46-.06-2.94-1.78-5-4.18-5.65-3.88-1.06-7.21,1.59-7.38,6.01-.12,3.11-.02,6.22-.02,9.33ZM198.39,71.49s0,0,.01,0c0-2.38.03-4.77-.01-7.15-.03-1.9-.45-3.7-1.96-5.03-1.81-1.6-3.9-1.98-6.1-1.04-2.56,1.09-3.54,3.28-3.57,5.92-.05,4.83-.04,9.66,0,14.5.01,1.68.4,3.28,1.6,4.58,1.58,1.7,3.98,2.35,6.18,1.51,2.6-1,3.73-3.09,3.83-5.74.09-2.51.02-5.03.02-7.55ZM158.61,56.68c0-2.72.02-5.43,0-8.15-.02-1.75-.36-3.42-1.61-4.78-1.57-1.7-4-2.36-6.18-1.51-2.68,1.04-3.79,3.23-3.83,5.96-.06,5.17,0,10.34-.05,15.51-.01,1.36.59,1.7,1.81,1.67,2.85-.07,5.73-.21,8.43.93,1.26.53,1.47.07,1.45-1.07-.04-2.85-.01-5.7-.02-8.55ZM138.71,56.15c0-2.52.01-5.04,0-7.55,0-1.34-.2-2.65-.88-3.83-1.28-2.22-3.77-3.28-6.28-2.69-2.69.63-4.4,2.8-4.46,6.05-.09,5.17,0,10.34-.05,15.5-.01,1.29.44,1.77,1.74,1.75,2.72-.06,5.43-.07,8.15,0,1.42.04,1.85-.53,1.81-1.88-.07-2.45-.02-4.9-.02-7.35ZM98.66,85.55c-4.63.67-9.15,1.36-13.61,2.36-1,.22-.74.95-.65,1.58.35,2.52.3,5.01-.25,7.5-.23,1.05.16,1.59,1.23,1.84,4.2.96,8.47,1.54,12.72,2.22.9.14,1.26-.19,1.16-1.06-.54-4.37-.64-8.72.4-13.04.2-.85-.05-1.46-.99-1.4Z"/>
  <path class="cls-1" d="M166.82,176.99c-.02,2.34-1.88,4.12-4.24,4.05-2.26-.07-3.97-1.87-3.95-4.14.02-2.34,1.88-4.12,4.24-4.05,2.26.07,3.97,1.87,3.95,4.14Z"/>
</svg>