<?xml version="1.0" encoding="UTF-8"?>
<svg id="Layer_1" data-name="Layer 1" xmlns="http://www.w3.org/2000/svg" viewBox="0 0 260.58 250">
  <defs>
    <style>
      .cls-1 {
        fill: #000;
        stroke-width: 0px;
      }
    </style>
  </defs>
  <path class="cls-1" d="M48.14,228.95c-3.05-1.5-4.26-3.9-4.23-7.33.13-11.23.13-22.47,0-33.7-.04-3.43,1.26-5.68,4.08-7.49,6-3.84,11.84-7.95,17.85-11.78,1.83-1.17,2.4-2.46,2.39-4.58-.09-17.49.21-34.98-.13-52.46-.26-13.36,2.78-25.62,9.36-37.22,7.86-13.86,15.32-27.95,23.02-41.91,6.02-10.92,18.9-13.72,29-6.35,1.05.77,1.75.8,2.82.03,10.28-7.43,23.01-4.62,29.11,6.46,8.37,15.2,16.74,30.39,24.96,45.67,4.79,8.91,7.25,18.48,7.25,28.64,0,19.24.02,38.47-.04,57.71,0,1.67.5,2.69,1.91,3.61,6.2,4.03,12.3,8.22,18.5,12.26,2.66,1.73,3.93,3.93,3.89,7.19-.12,11.3-.12,22.6,0,33.9.04,3.44-1.18,5.83-4.23,7.33h-52.48c-1.37-.75-2.53-1.74-3.63-2.85-5.74-5.77-11.49-11.54-17.27-17.27-3.11-3.09-6.13-6.25-8.4-10.03-.71-1.19-1.23-1.18-1.95,0-2.27,3.78-5.29,6.94-8.4,10.03-5.73,5.69-11.43,11.4-17.13,17.13-1.15,1.15-2.34,2.22-3.78,2.99h-52.48ZM181.22,139.08c0-10.02.04-20.05-.01-30.07-.05-8.59-1.64-16.87-5.77-24.49-8.3-15.32-16.67-30.6-25.06-45.86-2.08-3.79-5.68-5-9.19-3.33-3.32,1.58-4.64,5.19-3.27,9.12,4.51,12.96,9.07,25.9,13.54,38.86,2.04,5.89,4.6,11.69,4.15,18.15-.11,1.52.38,2.68,1.36,3.83,2.93,3.46,4.39,7.46,4.36,12.05-.07,10.5-.02,20.99-.02,31.49,0,.87,0,1.74-.29,2.59-1.03,2.95-3.9,4.66-7.02,4.15-2.91-.48-5.05-2.99-5.06-6.15-.03-10.29-.02-20.59,0-30.88,0-1.43-.12-2.83-.82-4.11-1.24-2.3-3.9-3.55-6.27-2.96-3.05.76-4.73,3.04-4.74,6.62-.02,18.57-.09,37.14.03,55.71.06,8.41,2.59,16.13,8.41,22.34,6.35,6.77,13.03,13.22,19.55,19.83.7.71,1.52.75,2.41.75,11.91,0,23.82-.04,35.73.04,1.84.01,2.26-.63,2.24-2.34-.08-7.47-.08-14.94,0-22.4.02-1.56-.55-2.44-1.8-3.26-6.19-4.05-12.28-8.26-18.51-12.25-2.84-1.83-4.05-4.13-4-7.53.15-9.96.05-19.91.05-29.87ZM124.7,146.01c0-9.28.02-18.57,0-27.85,0-4.01-2.45-6.85-5.84-6.91-3.43-.06-5.93,2.86-5.97,6.98,0,.61,0,1.21,0,1.82,0,9.49,0,18.97,0,28.46,0,.94.05,1.88-.26,2.8-.97,2.96-3.81,4.71-6.95,4.26-2.92-.42-5.15-2.94-5.16-6.06-.04-10.76.02-21.53-.04-32.29-.02-4.44,1.36-8.35,4.18-11.71,1.11-1.33,1.65-2.64,1.54-4.37-.22-3.6.45-7.1,1.62-10.5,2.04-5.91,4.09-11.82,6.14-17.73,3.34-9.59,6.71-19.17,10-28.77,1.31-3.81-.16-7.37-3.45-8.87-3.47-1.58-6.92-.33-9.05,3.29-.51.87-.98,1.76-1.47,2.65-6.74,12.34-13.21,24.83-20.3,36.96-6.34,10.83-9.38,22.22-9.18,34.78.3,18.7.02,37.41.13,56.11.02,3.42-1.26,5.71-4.06,7.52-6.21,4.02-12.31,8.21-18.51,12.26-1.28.84-1.76,1.77-1.74,3.3.07,7.4.09,14.8,0,22.2-.02,1.83.49,2.43,2.38,2.41,11.77-.08,23.55-.06,35.32-.01,1.4,0,2.39-.43,3.36-1.41,5.2-5.27,10.34-10.6,15.71-15.69,8.12-7.7,11.8-17.09,11.64-28.18-.12-8.48-.02-16.95-.02-25.43ZM130.93,62.57c-.43,1.12-.66,1.67-.86,2.23-2.33,6.67-4.66,13.33-6.96,20-1.34,3.88-2.62,7.77-3.92,11.66-.5,1.49-.38,2.35,1.6,2.45,3.3.17,6.27,1.49,8.89,3.48.91.69,1.51.72,2.44.01,2.61-2,5.58-3.32,8.88-3.49,1.95-.1,2.12-.93,1.61-2.44-1.53-4.52-3.02-9.05-4.58-13.56-2.28-6.6-4.6-13.19-7.1-20.34Z"/>
</svg>