<?xml version="1.0" encoding="UTF-8"?>
<svg id="Layer_1" data-name="Layer 1" xmlns="http://www.w3.org/2000/svg" viewBox="0 0 260.58 250">
  <defs>
    <style>
      .cls-1 {
        fill: #000;
        stroke-width: 0px;
      }
    </style>
  </defs>
  <path class="cls-1" d="M176.27,125.33c0,7.54-.05,15.08.03,22.62.03,2.21-.85,3.42-2.89,4.18-13.56,5.05-27.1,10.16-40.64,15.27-1.33.5-2.57.45-3.89-.05-13.48-5.09-26.95-10.18-40.46-15.2-2.15-.8-2.95-2.07-2.94-4.35.05-15.08.03-30.16-.04-45.24-.01-2.1.7-3.29,2.72-4.05,13.68-5.12,27.33-10.33,40.97-15.53,1.34-.51,2.57-.46,3.88.05,13.58,5.2,27.15,10.4,40.75,15.54,1.83.69,2.6,1.78,2.58,3.74-.07,7.67-.03,15.35-.03,23.02h-.05ZM170.93,126.42h.28c0-6.33,0-12.66,0-19,0-2.19-.04-2.21-2.1-1.42-11.21,4.28-22.4,8.6-33.63,12.81-1.61.6-2.08,1.42-2.07,3.06.06,12.34.03,24.67.03,37.01q0,2.69,2.44,1.77c10.98-4.14,21.94-8.3,32.94-12.37,1.57-.58,2.17-1.37,2.14-3.05-.08-6.27-.03-12.53-.03-18.8ZM128.35,140.6c0-6.41-.02-12.82.01-19.23,0-1.11-.21-1.87-1.39-2.31-11.61-4.4-23.2-8.83-34.78-13.28-1.28-.49-1.64-.11-1.63,1.19.12,12.95.21,25.9.28,38.84,0,1.17.45,1.8,1.57,2.21,11.38,4.25,22.75,8.51,34.09,12.84,1.7.65,1.88.04,1.87-1.44-.05-6.27-.02-12.55-.02-18.83ZM117.46,109.82c3.99,1.53,7.49,2.8,10.93,4.22,1.72.71,3.26.7,5,.02,8.88-3.46,17.8-6.83,26.71-10.24,1.95-.74,3.88-1.52,6.27-2.45-5.15-1.95-9.81-3.72-14.48-5.5-.92-.35-1.7.04-2.49.37-3.38,1.42-6.76,2.85-10.13,4.29-7.11,3.02-14.21,6.05-21.8,9.28ZM143.25,93.13c0-.18,0-.36-.01-.54-3.53-1.35-7.07-2.68-10.59-4.07-1.2-.48-2.28-.39-3.46.07-8.84,3.39-17.69,6.73-26.55,10.08-2.26.86-4.52,1.71-7.28,2.75,4.72,1.79,8.91,3.32,13.04,4.98,1.34.54,2.46.55,3.8-.03,7.52-3.26,15.09-6.43,22.63-9.64,2.81-1.19,5.61-2.4,8.42-3.59Z"/>
  <path class="cls-1" d="M54.96,168.2c.91-4.22,1.7-7.93,2.51-11.64.13-.59.24-1.18.42-1.75.48-1.45,1.47-2.29,3.02-1.96,1.54.33,2.18,1.5,1.98,3.02-.21,1.52-.54,3.02-.86,4.52-1.03,4.82-2.08,9.65-3.13,14.47-.55,2.52-1.73,3.27-4.16,2.55-5.94-1.77-11.87-3.59-17.81-5.39-1.18-.36-2.29-.82-2.62-2.18-.5-2.08,1.27-3.58,3.66-2.94,2.9.77,5.75,1.72,8.62,2.59.94.28,1.9.53,2.95.83.26-.98-.32-1.54-.63-2.13-8.07-15.16-11.62-31.35-10.57-48.45,1.25-20.36,8.52-38.39,21.84-53.91,10.29-12,22.84-20.8,37.67-26.28,8.43-3.12,17.14-4.89,26.14-5.43,18.09-1.08,34.94,2.97,50.72,11.77.23.13.47.26.69.4,1.87,1.17,2.41,2.52,1.58,3.93-.83,1.42-2.33,1.69-4.19.63-4.76-2.73-9.65-5.18-14.88-6.85-31.26-9.94-59.78-4.81-84.85,16.46-16.94,14.37-26.51,33.03-29.02,55.14-1.99,17.51,1.11,34.13,9.3,49.77.43.82.91,1.61,1.61,2.84Z"/>
  <path class="cls-1" d="M206.99,88.12c-1.57,4.25-2.98,8.12-4.43,11.98-.25.68-.54,1.39-.99,1.94-.81,1-1.95,1.17-3.08.63-1.06-.51-1.56-1.46-1.34-2.65.13-.72.38-1.42.63-2.1,1.99-5.45,3.98-10.9,6-16.35,1.03-2.78,2.24-3.3,4.91-2.07,5.27,2.43,10.53,4.88,15.8,7.33.48.22.97.45,1.43.71,1.41.8,2.06,1.98,1.36,3.51-.72,1.56-2.15,1.78-3.58,1.17-2.82-1.21-5.58-2.55-8.37-3.84-.72-.33-1.44-.66-2.3-1.05-.23,1,.29,1.67.57,2.34,5.47,13.02,7.88,26.6,7.04,40.66-1.2,20-8.12,37.86-21.01,53.25-13.77,16.44-31.21,26.92-52.27,31.14-19.38,3.88-38.08,1.57-56.08-6.56-.36-.16-.73-.34-1.07-.54-1.32-.79-1.9-1.94-1.27-3.38.68-1.56,2.03-1.83,3.53-1.29.94.34,1.82.82,2.74,1.22,12.33,5.36,25.27,7.92,38.64,6.93,32.22-2.4,56.32-17.83,71.87-46.23,7.98-14.58,10.68-30.37,9.49-46.82-.73-10.06-3.35-19.7-7.58-28.88-.11-.23-.27-.44-.65-1.04Z"/>
  <path class="cls-1" d="M103.1,115.59c.47.13.99.24,1.49.43,3.74,1.39,7.49,2.78,11.22,4.21,2.16.83,2.92,2.15,2.29,3.74-.59,1.46-2.09,1.93-4.08,1.19-3.87-1.44-7.73-2.89-11.59-4.37-1.38-.53-2.25-1.51-1.94-3.07.26-1.34,1.22-2,2.61-2.13Z"/>
</svg>