<?xml version="1.0" encoding="UTF-8"?>
<svg id="Layer_1" data-name="Layer 1" xmlns="http://www.w3.org/2000/svg" viewBox="0 0 260.58 250">
  <defs>
    <style>
      .cls-1 {
        fill: #000;
        stroke-width: 0px;
      }
    </style>
  </defs>
  <path class="cls-1" d="M170.73,19.03c4.29,0,8.57,0,12.86,0,.33.08.67.2,1.01.24,17.29,2.36,31.21,10.55,41.23,24.77,12.2,17.31,14.02,36.19,7.12,56.04-4.47,12.86-11.42,24.36-19.37,35.31-1.1,1.51-1.7,3-1.73,4.93-.08,5.03-1.86,9.47-5.44,13.06-19.24,19.27-38.49,38.53-57.77,57.76-4.11,4.1-9.12,6.63-14.76,7.98-4.91,1.17-9.9.75-14.86.75-1.82,0-3.14.53-4.37,1.84-2.22,2.37-4.57,4.62-6.87,6.91-4.04,4.02-7.39,4.02-11.41,0-18.77-18.76-37.53-37.53-56.3-56.3-4.15-4.15-4.13-7.4-.07-11.56,3.76-3.85,7.87-7.38,11.14-11.7,3.33-4.4,3.24-4.36-.04-8.7-12.67-16.79-23.7-34.38-26.77-55.79,0-4.15,0-8.29,0-12.44.1-.54.2-1.08.29-1.62,3.23-20.18,13.79-35.19,31.74-44.96,6.57-3.58,13.69-5.46,21.06-6.5,4.29,0,8.57,0,12.86,0,.33.08.66.2,1,.25,15.22,2.07,27.81,8.99,37.81,20.62,1.11,1.3,1.74,1.32,2.84,0,4.97-5.95,10.94-10.69,17.79-14.32,6.6-3.5,13.67-5.47,21.03-6.55ZM83.04,108.78h-.02c0-3.87.04-7.74,0-11.61-.09-6.59-2.46-11.86-8.82-14.68-2.75-1.22-3.26-.87-3.26,2.1,0,14.86-.02,29.72,0,44.58,0,3.2-.41,6.34-1.09,9.45-2.13,9.59-6.9,17.68-13.9,24.53-3.41,3.33-3.37,3.37.05,6.79,9.73,9.72,19.45,19.45,29.18,29.17,5.13,5.13,10.29,10.24,15.38,15.41,1.12,1.14,1.91,1.26,3.02.02,1.48-1.64,3.17-3.09,4.66-4.72,1.91-2.1,4.25-2.96,7.02-2.94,3.39.03,6.78-.13,10.16.03,6.38.3,11.46-2.13,15.9-6.61,18.07-18.19,36.24-36.29,54.36-54.43.78-.78,1.59-1.57,2.17-2.49,2.34-3.68.51-8.07-3.72-9.06-2.52-.59-4.41.58-6.09,2.26-6.55,6.55-13.08,13.11-19.66,19.63-2.17,2.15-5.13,2.6-7.63,1.34-2.5-1.26-3.78-3.79-3.39-6.75.24-1.82,1.32-3.14,2.56-4.38,11-10.99,22-21.99,32.99-32.99.63-.63,1.31-1.25,1.84-1.97,1.47-2.03,1.64-4.24.5-6.45-1.08-2.1-2.91-3-5.28-2.99-2.21.01-3.73,1.2-5.19,2.66-10.84,10.86-21.69,21.7-32.55,32.55-.78.78-1.56,1.59-2.46,2.21-3.79,2.64-8.67.83-9.91-3.61-.81-2.92.5-5.06,2.46-7.02,13.79-13.77,27.57-27.56,41.35-41.34.68-.68,1.39-1.35,2.02-2.08,2.04-2.41,2-5.7-.05-7.94-2.03-2.2-5.4-2.53-7.91-.7-.83.61-1.56,1.36-2.29,2.09-13.69,13.68-27.37,27.36-41.06,41.04-.68.68-1.35,1.41-2.14,1.95-2.33,1.58-4.78,1.74-7.2.22-2.35-1.48-3.22-3.71-2.9-6.41.23-1.88,1.4-3.24,2.7-4.54,10.96-10.93,21.9-21.89,32.84-32.84.63-.63,1.3-1.26,1.83-1.97,1.51-2.02,1.63-4.25.54-6.45-1.05-2.11-2.9-3.01-5.26-3.03-2.31-.02-3.84,1.3-5.33,2.79-17.88,17.89-35.77,35.78-53.66,53.66-.64.64-1.26,1.29-1.93,1.88-2.12,1.84-4.5,2.39-7.11,1.19-2.51-1.16-3.72-3.18-3.71-5.95.01-3.87,0-7.74,0-11.61ZM95.81,104.24c1.28-.23,1.74-1.07,2.35-1.67,14.14-14.11,28.38-28.12,42.35-42.4,10.13-10.36,25.18-7.2,30.86,3.36.54,1.01,1.11,1.18,2.15.71,2.67-1.23,5.52-1.86,8.46-1.7,13.15.72,21.49,13.56,16.77,25.85-.66,1.71-.41,2.47,1.16,3.42,6.76,4.12,10.02,11.54,8.7,19.35-.69,4.1-2.65,7.51-5.58,10.43-.46.46-1.39.9-1.01,1.62.47.92,1.54,1.38,2.49,1.75.75.29,1.03-.53,1.36-1.01,4.71-6.84,9-13.94,12.33-21.57,4.38-10.03,7.16-20.37,5.11-31.42-3.27-17.6-13.25-30.02-29.97-36.23-16.5-6.13-31.95-3.2-45.76,7.78-4.66,3.7-8.21,8.35-11.21,13.47-2.07,3.54-5.5,4.62-8.81,2.97-1.93-.96-2.77-2.82-3.85-4.49-10.81-16.71-26.19-24.6-45.95-22.27-27.48,3.25-45.74,29.94-39.42,56.97,3.31,14.2,10.71,26.42,19.2,38.05.05.07.24.05.4.07.42-.78.21-1.62.21-2.42.02-15.28-.02-30.55.04-45.83.02-6.2,4.71-10.8,10.83-10.66,4.48.1,8.79,1.09,12.7,3.36,9.11,5.29,13.8,13.27,14.11,23.79.08,2.87.01,5.74.01,8.71Z"/>
</svg>